<?xml version="1.0" encoding="UTF-8"?><svg xmlns="http://www.w3.org/2000/svg" xmlns:xlink="http://www.w3.org/1999/xlink" contentScriptType="application/ecmascript" contentStyleType="text/css" height="270px" preserveAspectRatio="none" style="width:2613px;height:270px;" version="1.1" viewBox="0 0 2613 270" width="2613px" zoomAndPan="magnify">
    <defs>
        <filter height="300%" id="f1n4zb2qe6jzeu" width="300%" x="-1" y="-1">
            <feGaussianBlur result="blurOut" stdDeviation="2.0"/>
            <feColorMatrix in="blurOut" result="blurOut2" type="matrix" values="0 0 0 0 0 0 0 0 0 0 0 0 0 0 0 0 0 0 .4 0"/>
            <feOffset dx="4.0" dy="4.0" in="blurOut2" result="blurOut3"/>
            <feBlend in="SourceGraphic" in2="blurOut3" mode="normal"/>
        </filter>
    </defs>
    <g>
        <!--class ProducHitDao-->
        <rect fill="#FEFECE" filter="url(#f1n4zb2qe6jzeu)" height="89.5078" style="stroke: #A80036; stroke-width: 1.5;" width="211" x="448.5" y="157.5"/>
        <ellipse cx="511.25" cy="173.5" fill="#ADD1B2" rx="11" ry="11" style="stroke: #A80036; stroke-width: 1.0;"/>
        <path d="M514.0156,169.375 Q514.1719,169.1563 514.3594,169.0469 Q514.5469,168.9375 514.7656,168.9375 Q515.1406,168.9375 515.375,169.1953 Q515.6094,169.4531 515.6094,170.0625 L515.6094,171.5156 Q515.6094,172.125 515.375,172.3906 Q515.1406,172.6563 514.7656,172.6563 Q514.4219,172.6563 514.2188,172.4531 Q514.0156,172.2656 513.9063,171.75 Q513.8594,171.3906 513.6719,171.2031 Q513.3438,170.8281 512.7344,170.6094 Q512.125,170.3906 511.5,170.3906 Q510.7344,170.3906 510.1016,170.7188 Q509.4688,171.0469 508.9766,171.7969 Q508.4844,172.5469 508.4844,173.5781 L508.4844,174.6719 Q508.4844,175.9063 509.375,176.7266 Q510.2656,177.5469 511.8594,177.5469 Q512.7969,177.5469 513.4531,177.2969 Q513.8438,177.1406 514.2656,176.7031 Q514.5313,176.4375 514.6797,176.3594 Q514.8281,176.2813 515.0313,176.2813 Q515.3594,176.2813 515.6172,176.5391 Q515.875,176.7969 515.875,177.1406 Q515.875,177.4844 515.5313,177.8906 Q515.0313,178.4688 514.2344,178.7969 Q513.1563,179.25 511.8594,179.25 Q510.3438,179.25 509.1406,178.625 Q508.1563,178.125 507.4688,177.0547 Q506.7813,175.9844 506.7813,174.7031 L506.7813,173.5469 Q506.7813,172.2188 507.3984,171.0703 Q508.0156,169.9219 509.1094,169.3047 Q510.2031,168.6875 511.4375,168.6875 Q512.1719,168.6875 512.8203,168.8516 Q513.4688,169.0156 514.0156,169.375 Z "/>
        <text fill="#000000" font-family="sans-serif" font-size="12" lengthAdjust="spacingAndGlyphs" textLength="77" x="531.75" y="178.4102">ProducHitDao</text>
        <line style="stroke: #A80036; stroke-width: 1.5;" x1="449.5" x2="658.5" y1="189.5" y2="189.5"/>
        <rect fill="none" height="6" style="stroke: #C82930; stroke-width: 1.0;" width="6" x="456.5" y="198.918"/>
        <text fill="#000000" font-family="sans-serif" font-size="11" lengthAdjust="spacingAndGlyphs" textLength="119" x="468.5" y="204.9189">driver : IProductHitCache</text>
        <line style="stroke: #A80036; stroke-width: 1.5;" x1="449.5" x2="658.5" y1="211.3359" y2="211.3359"/>
        <ellipse cx="459.5" cy="223.7539" fill="#84BE84" rx="3" ry="3" style="stroke: #038048; stroke-width: 1.0;"/>
        <text fill="#000000" font-family="sans-serif" font-size="11" lengthAdjust="spacingAndGlyphs" textLength="87" x="468.5" y="226.7549">hit(id : type) : type</text>
        <ellipse cx="459.5" cy="237.5898" fill="#84BE84" rx="3" ry="3" style="stroke: #038048; stroke-width: 1.0;"/>
        <text fill="#000000" font-family="sans-serif" font-size="11" lengthAdjust="spacingAndGlyphs" textLength="185" x="468.5" y="240.5908">__construct(driver : IProductHitCache)</text>
        <!--class IProductHitDao-->
        <rect fill="#FEFECE" filter="url(#f1n4zb2qe6jzeu)" height="61.8359" style="stroke: #A80036; stroke-width: 1.5;" width="116" x="496" y="15"/>
        <ellipse cx="511" cy="31" fill="#B4A7E5" rx="11" ry="11" style="stroke: #A80036; stroke-width: 1.0;"/>
        <path d="M511.9531,27.6406 L511.9531,34.2969 L513.6719,34.2969 Q514.2813,34.2969 514.5469,34.5313 Q514.8125,34.7656 514.8125,35.1563 Q514.8125,35.5313 514.5469,35.7656 Q514.2813,36 513.6719,36 L508.5313,36 Q507.9219,36 507.6563,35.7656 Q507.3906,35.5313 507.3906,35.1406 Q507.3906,34.7656 507.6563,34.5313 Q507.9219,34.2969 508.5313,34.2969 L510.25,34.2969 L510.25,27.6406 L508.5313,27.6406 Q507.9219,27.6406 507.6563,27.4063 Q507.3906,27.1719 507.3906,26.7813 Q507.3906,26.4063 507.6563,26.1719 Q507.9219,25.9375 508.5313,25.9375 L513.6719,25.9375 Q514.2813,25.9375 514.5469,26.1719 Q514.8125,26.4063 514.8125,26.7813 Q514.8125,27.1719 514.5469,27.4063 Q514.2813,27.6406 513.6719,27.6406 L511.9531,27.6406 Z "/>
        <text fill="#000000" font-family="sans-serif" font-size="12" font-style="italic" lengthAdjust="spacingAndGlyphs" textLength="84" x="525" y="35.9102">IProductHitDao</text>
        <line style="stroke: #A80036; stroke-width: 1.5;" x1="497" x2="611" y1="47" y2="47"/>
        <line style="stroke: #A80036; stroke-width: 1.5;" x1="497" x2="611" y1="55" y2="55"/>
        <ellipse cx="507" cy="67.418" fill="#84BE84" rx="3" ry="3" style="stroke: #038048; stroke-width: 1.0;"/>
        <text fill="#000000" font-family="sans-serif" font-size="11" lengthAdjust="spacingAndGlyphs" textLength="63" x="516" y="70.4189">hit(id : string)</text>
        <!--class ProductHitCacheCSV-->
        <rect fill="#FEFECE" filter="url(#f1n4zb2qe6jzeu)" height="89.5078" style="stroke: #A80036; stroke-width: 1.5;" width="171" x="694.5" y="157.5"/>
        <ellipse cx="719.4" cy="173.5" fill="#ADD1B2" rx="11" ry="11" style="stroke: #A80036; stroke-width: 1.0;"/>
        <path d="M722.1656,169.375 Q722.3219,169.1563 722.5094,169.0469 Q722.6969,168.9375 722.9156,168.9375 Q723.2906,168.9375 723.525,169.1953 Q723.7594,169.4531 723.7594,170.0625 L723.7594,171.5156 Q723.7594,172.125 723.525,172.3906 Q723.2906,172.6563 722.9156,172.6563 Q722.5719,172.6563 722.3688,172.4531 Q722.1656,172.2656 722.0563,171.75 Q722.0094,171.3906 721.8219,171.2031 Q721.4938,170.8281 720.8844,170.6094 Q720.275,170.3906 719.65,170.3906 Q718.8844,170.3906 718.2516,170.7188 Q717.6188,171.0469 717.1266,171.7969 Q716.6344,172.5469 716.6344,173.5781 L716.6344,174.6719 Q716.6344,175.9063 717.525,176.7266 Q718.4156,177.5469 720.0094,177.5469 Q720.9469,177.5469 721.6031,177.2969 Q721.9938,177.1406 722.4156,176.7031 Q722.6813,176.4375 722.8297,176.3594 Q722.9781,176.2813 723.1813,176.2813 Q723.5094,176.2813 723.7672,176.5391 Q724.025,176.7969 724.025,177.1406 Q724.025,177.4844 723.6813,177.8906 Q723.1813,178.4688 722.3844,178.7969 Q721.3063,179.25 720.0094,179.25 Q718.4938,179.25 717.2906,178.625 Q716.3063,178.125 715.6188,177.0547 Q714.9313,175.9844 714.9313,174.7031 L714.9313,173.5469 Q714.9313,172.2188 715.5484,171.0703 Q716.1656,169.9219 717.2594,169.3047 Q718.3531,168.6875 719.5875,168.6875 Q720.3219,168.6875 720.9703,168.8516 Q721.6188,169.0156 722.1656,169.375 Z "/>
        <text fill="#000000" font-family="sans-serif" font-size="12" lengthAdjust="spacingAndGlyphs" textLength="117" x="735.6" y="178.4102">ProductHitCacheCSV</text>
        <line style="stroke: #A80036; stroke-width: 1.5;" x1="695.5" x2="864.5" y1="189.5" y2="189.5"/>
        <rect fill="none" height="6" style="stroke: #C82930; stroke-width: 1.0;" width="6" x="702.5" y="198.918"/>
        <text fill="#000000" font-family="sans-serif" font-size="11" lengthAdjust="spacingAndGlyphs" textLength="145" x="714.5" y="204.9189">filename : string = "./counters"</text>
        <line style="stroke: #A80036; stroke-width: 1.5;" x1="695.5" x2="864.5" y1="211.3359" y2="211.3359"/>
        <ellipse cx="705.5" cy="223.7539" fill="#84BE84" rx="3" ry="3" style="stroke: #038048; stroke-width: 1.0;"/>
        <text fill="#000000" font-family="sans-serif" font-size="11" lengthAdjust="spacingAndGlyphs" textLength="72" x="714.5" y="226.7549">hit(key : string)</text>
        <ellipse cx="705.5" cy="237.5898" fill="#84BE84" rx="3" ry="3" style="stroke: #038048; stroke-width: 1.0;"/>
        <text fill="#000000" font-family="sans-serif" font-size="11" lengthAdjust="spacingAndGlyphs" textLength="142" x="714.5" y="240.5908">__construct(filename : string)</text>
        <!--class IProductHitCache-->
        <rect fill="#FEFECE" filter="url(#f1n4zb2qe6jzeu)" height="61.8359" style="stroke: #A80036; stroke-width: 1.5;" width="129" x="916.5" y="15"/>
        <ellipse cx="931.5" cy="31" fill="#B4A7E5" rx="11" ry="11" style="stroke: #A80036; stroke-width: 1.0;"/>
        <path d="M932.4531,27.6406 L932.4531,34.2969 L934.1719,34.2969 Q934.7813,34.2969 935.0469,34.5313 Q935.3125,34.7656 935.3125,35.1563 Q935.3125,35.5313 935.0469,35.7656 Q934.7813,36 934.1719,36 L929.0313,36 Q928.4219,36 928.1563,35.7656 Q927.8906,35.5313 927.8906,35.1406 Q927.8906,34.7656 928.1563,34.5313 Q928.4219,34.2969 929.0313,34.2969 L930.75,34.2969 L930.75,27.6406 L929.0313,27.6406 Q928.4219,27.6406 928.1563,27.4063 Q927.8906,27.1719 927.8906,26.7813 Q927.8906,26.4063 928.1563,26.1719 Q928.4219,25.9375 929.0313,25.9375 L934.1719,25.9375 Q934.7813,25.9375 935.0469,26.1719 Q935.3125,26.4063 935.3125,26.7813 Q935.3125,27.1719 935.0469,27.4063 Q934.7813,27.6406 934.1719,27.6406 L932.4531,27.6406 Z "/>
        <text fill="#000000" font-family="sans-serif" font-size="12" font-style="italic" lengthAdjust="spacingAndGlyphs" textLength="97" x="945.5" y="35.9102">IProductHitCache</text>
        <line style="stroke: #A80036; stroke-width: 1.5;" x1="917.5" x2="1044.5" y1="47" y2="47"/>
        <line style="stroke: #A80036; stroke-width: 1.5;" x1="917.5" x2="1044.5" y1="55" y2="55"/>
        <ellipse cx="927.5" cy="67.418" fill="#84BE84" rx="3" ry="3" style="stroke: #038048; stroke-width: 1.0;"/>
        <text fill="#000000" font-family="sans-serif" font-size="11" lengthAdjust="spacingAndGlyphs" textLength="72" x="936.5" y="70.4189">hit(key : string)</text>
        <!--class ProductDao-->
        <rect fill="#FEFECE" filter="url(#f1n4zb2qe6jzeu)" height="103.3438" style="stroke: #A80036; stroke-width: 1.5;" width="397" x="1323.5" y="151"/>
        <ellipse cx="1485.25" cy="167" fill="#ADD1B2" rx="11" ry="11" style="stroke: #A80036; stroke-width: 1.0;"/>
        <path d="M1488.0156,162.875 Q1488.1719,162.6563 1488.3594,162.5469 Q1488.5469,162.4375 1488.7656,162.4375 Q1489.1406,162.4375 1489.375,162.6953 Q1489.6094,162.9531 1489.6094,163.5625 L1489.6094,165.0156 Q1489.6094,165.625 1489.375,165.8906 Q1489.1406,166.1563 1488.7656,166.1563 Q1488.4219,166.1563 1488.2188,165.9531 Q1488.0156,165.7656 1487.9063,165.25 Q1487.8594,164.8906 1487.6719,164.7031 Q1487.3438,164.3281 1486.7344,164.1094 Q1486.125,163.8906 1485.5,163.8906 Q1484.7344,163.8906 1484.1016,164.2188 Q1483.4688,164.5469 1482.9766,165.2969 Q1482.4844,166.0469 1482.4844,167.0781 L1482.4844,168.1719 Q1482.4844,169.4063 1483.375,170.2266 Q1484.2656,171.0469 1485.8594,171.0469 Q1486.7969,171.0469 1487.4531,170.7969 Q1487.8438,170.6406 1488.2656,170.2031 Q1488.5313,169.9375 1488.6797,169.8594 Q1488.8281,169.7813 1489.0313,169.7813 Q1489.3594,169.7813 1489.6172,170.0391 Q1489.875,170.2969 1489.875,170.6406 Q1489.875,170.9844 1489.5313,171.3906 Q1489.0313,171.9688 1488.2344,172.2969 Q1487.1563,172.75 1485.8594,172.75 Q1484.3438,172.75 1483.1406,172.125 Q1482.1563,171.625 1481.4688,170.5547 Q1480.7813,169.4844 1480.7813,168.2031 L1480.7813,167.0469 Q1480.7813,165.7188 1481.3984,164.5703 Q1482.0156,163.4219 1483.1094,162.8047 Q1484.2031,162.1875 1485.4375,162.1875 Q1486.1719,162.1875 1486.8203,162.3516 Q1487.4688,162.5156 1488.0156,162.875 Z "/>
        <text fill="#000000" font-family="sans-serif" font-size="12" lengthAdjust="spacingAndGlyphs" textLength="65" x="1505.75" y="171.9102">ProductDao</text>
        <line style="stroke: #A80036; stroke-width: 1.5;" x1="1324.5" x2="1719.5" y1="183" y2="183"/>
        <rect fill="none" height="6" style="stroke: #C82930; stroke-width: 1.0;" width="6" x="1331.5" y="192.418"/>
        <text fill="#000000" font-family="sans-serif" font-size="11" lengthAdjust="spacingAndGlyphs" textLength="109" x="1343.5" y="198.4189">cache : IProductCache</text>
        <rect fill="none" height="6" style="stroke: #C82930; stroke-width: 1.0;" width="6" x="1331.5" y="206.2539"/>
        <text fill="#000000" font-family="sans-serif" font-size="11" lengthAdjust="spacingAndGlyphs" textLength="190" x="1343.5" y="212.2549">dbManager : IProductDatabaseManager</text>
        <line style="stroke: #A80036; stroke-width: 1.5;" x1="1324.5" x2="1719.5" y1="218.6719" y2="218.6719"/>
        <ellipse cx="1334.5" cy="231.0898" fill="#84BE84" rx="3" ry="3" style="stroke: #038048; stroke-width: 1.0;"/>
        <text fill="#000000" font-family="sans-serif" font-size="11" lengthAdjust="spacingAndGlyphs" textLength="105" x="1343.5" y="234.0908">find(id : string) : array</text>
        <ellipse cx="1334.5" cy="244.9258" fill="#84BE84" rx="3" ry="3" style="stroke: #038048; stroke-width: 1.0;"/>
        <text fill="#000000" font-family="sans-serif" font-size="11" lengthAdjust="spacingAndGlyphs" textLength="371" x="1343.5" y="247.9268">__construct(dbManager : IProductDatabaseManager, cache : IProductCache)</text>
        <!--class IProductDao-->
        <rect fill="#FEFECE" filter="url(#f1n4zb2qe6jzeu)" height="61.8359" style="stroke: #A80036; stroke-width: 1.5;" width="131" x="1456.5" y="15"/>
        <ellipse cx="1485" cy="31" fill="#B4A7E5" rx="11" ry="11" style="stroke: #A80036; stroke-width: 1.0;"/>
        <path d="M1485.9531,27.6406 L1485.9531,34.2969 L1487.6719,34.2969 Q1488.2813,34.2969 1488.5469,34.5313 Q1488.8125,34.7656 1488.8125,35.1563 Q1488.8125,35.5313 1488.5469,35.7656 Q1488.2813,36 1487.6719,36 L1482.5313,36 Q1481.9219,36 1481.6563,35.7656 Q1481.3906,35.5313 1481.3906,35.1406 Q1481.3906,34.7656 1481.6563,34.5313 Q1481.9219,34.2969 1482.5313,34.2969 L1484.25,34.2969 L1484.25,27.6406 L1482.5313,27.6406 Q1481.9219,27.6406 1481.6563,27.4063 Q1481.3906,27.1719 1481.3906,26.7813 Q1481.3906,26.4063 1481.6563,26.1719 Q1481.9219,25.9375 1482.5313,25.9375 L1487.6719,25.9375 Q1488.2813,25.9375 1488.5469,26.1719 Q1488.8125,26.4063 1488.8125,26.7813 Q1488.8125,27.1719 1488.5469,27.4063 Q1488.2813,27.6406 1487.6719,27.6406 L1485.9531,27.6406 Z "/>
        <text fill="#000000" font-family="sans-serif" font-size="12" font-style="italic" lengthAdjust="spacingAndGlyphs" textLength="69" x="1502" y="35.9102">IProductDao</text>
        <line style="stroke: #A80036; stroke-width: 1.5;" x1="1457.5" x2="1586.5" y1="47" y2="47"/>
        <line style="stroke: #A80036; stroke-width: 1.5;" x1="1457.5" x2="1586.5" y1="55" y2="55"/>
        <ellipse cx="1467.5" cy="67.418" fill="#84BE84" rx="3" ry="3" style="stroke: #038048; stroke-width: 1.0;"/>
        <text fill="#000000" font-family="sans-serif" font-size="11" lengthAdjust="spacingAndGlyphs" textLength="105" x="1476.5" y="70.4189">find(id : string) : array</text>
        <!--class ProductHitCacheClever-->
        <rect fill="#FEFECE" filter="url(#f1n4zb2qe6jzeu)" height="89.5078" style="stroke: #A80036; stroke-width: 1.5;" width="160" x="901" y="157.5"/>
        <ellipse cx="916" cy="173.5" fill="#ADD1B2" rx="11" ry="11" style="stroke: #A80036; stroke-width: 1.0;"/>
        <path d="M918.7656,169.375 Q918.9219,169.1563 919.1094,169.0469 Q919.2969,168.9375 919.5156,168.9375 Q919.8906,168.9375 920.125,169.1953 Q920.3594,169.4531 920.3594,170.0625 L920.3594,171.5156 Q920.3594,172.125 920.125,172.3906 Q919.8906,172.6563 919.5156,172.6563 Q919.1719,172.6563 918.9688,172.4531 Q918.7656,172.2656 918.6563,171.75 Q918.6094,171.3906 918.4219,171.2031 Q918.0938,170.8281 917.4844,170.6094 Q916.875,170.3906 916.25,170.3906 Q915.4844,170.3906 914.8516,170.7188 Q914.2188,171.0469 913.7266,171.7969 Q913.2344,172.5469 913.2344,173.5781 L913.2344,174.6719 Q913.2344,175.9063 914.125,176.7266 Q915.0156,177.5469 916.6094,177.5469 Q917.5469,177.5469 918.2031,177.2969 Q918.5938,177.1406 919.0156,176.7031 Q919.2813,176.4375 919.4297,176.3594 Q919.5781,176.2813 919.7813,176.2813 Q920.1094,176.2813 920.3672,176.5391 Q920.625,176.7969 920.625,177.1406 Q920.625,177.4844 920.2813,177.8906 Q919.7813,178.4688 918.9844,178.7969 Q917.9063,179.25 916.6094,179.25 Q915.0938,179.25 913.8906,178.625 Q912.9063,178.125 912.2188,177.0547 Q911.5313,175.9844 911.5313,174.7031 L911.5313,173.5469 Q911.5313,172.2188 912.1484,171.0703 Q912.7656,169.9219 913.8594,169.3047 Q914.9531,168.6875 916.1875,168.6875 Q916.9219,168.6875 917.5703,168.8516 Q918.2188,169.0156 918.7656,169.375 Z "/>
        <text fill="#000000" font-family="sans-serif" font-size="12" lengthAdjust="spacingAndGlyphs" textLength="128" x="930" y="178.4102">ProductHitCacheClever</text>
        <line style="stroke: #A80036; stroke-width: 1.5;" x1="902" x2="1060" y1="189.5" y2="189.5"/>
        <rect fill="none" height="6" style="stroke: #C82930; stroke-width: 1.0;" width="6" x="909" y="198.918"/>
        <text fill="#000000" font-family="sans-serif" font-size="11" lengthAdjust="spacingAndGlyphs" textLength="83" x="921" y="204.9189">path : string = "./"</text>
        <line style="stroke: #A80036; stroke-width: 1.5;" x1="902" x2="1060" y1="211.3359" y2="211.3359"/>
        <ellipse cx="912" cy="223.7539" fill="#84BE84" rx="3" ry="3" style="stroke: #038048; stroke-width: 1.0;"/>
        <text fill="#000000" font-family="sans-serif" font-size="11" lengthAdjust="spacingAndGlyphs" textLength="72" x="921" y="226.7549">hit(key : string)</text>
        <ellipse cx="912" cy="237.5898" fill="#84BE84" rx="3" ry="3" style="stroke: #038048; stroke-width: 1.0;"/>
        <text fill="#000000" font-family="sans-serif" font-size="11" lengthAdjust="spacingAndGlyphs" textLength="123" x="921" y="240.5908">__construct(path : string)</text>
        <!--class ProductESAdapter-->
        <rect fill="#FEFECE" filter="url(#f1n4zb2qe6jzeu)" height="89.5078" style="stroke: #A80036; stroke-width: 1.5;" width="195" x="1755.5" y="157.5"/>
        <ellipse cx="1798.85" cy="173.5" fill="#ADD1B2" rx="11" ry="11" style="stroke: #A80036; stroke-width: 1.0;"/>
        <path d="M1801.6156,169.375 Q1801.7719,169.1563 1801.9594,169.0469 Q1802.1469,168.9375 1802.3656,168.9375 Q1802.7406,168.9375 1802.975,169.1953 Q1803.2094,169.4531 1803.2094,170.0625 L1803.2094,171.5156 Q1803.2094,172.125 1802.975,172.3906 Q1802.7406,172.6563 1802.3656,172.6563 Q1802.0219,172.6563 1801.8188,172.4531 Q1801.6156,172.2656 1801.5063,171.75 Q1801.4594,171.3906 1801.2719,171.2031 Q1800.9438,170.8281 1800.3344,170.6094 Q1799.725,170.3906 1799.1,170.3906 Q1798.3344,170.3906 1797.7016,170.7188 Q1797.0688,171.0469 1796.5766,171.7969 Q1796.0844,172.5469 1796.0844,173.5781 L1796.0844,174.6719 Q1796.0844,175.9063 1796.975,176.7266 Q1797.8656,177.5469 1799.4594,177.5469 Q1800.3969,177.5469 1801.0531,177.2969 Q1801.4438,177.1406 1801.8656,176.7031 Q1802.1313,176.4375 1802.2797,176.3594 Q1802.4281,176.2813 1802.6313,176.2813 Q1802.9594,176.2813 1803.2172,176.5391 Q1803.475,176.7969 1803.475,177.1406 Q1803.475,177.4844 1803.1313,177.8906 Q1802.6313,178.4688 1801.8344,178.7969 Q1800.7563,179.25 1799.4594,179.25 Q1797.9438,179.25 1796.7406,178.625 Q1795.7563,178.125 1795.0688,177.0547 Q1794.3813,175.9844 1794.3813,174.7031 L1794.3813,173.5469 Q1794.3813,172.2188 1794.9984,171.0703 Q1795.6156,169.9219 1796.7094,169.3047 Q1797.8031,168.6875 1799.0375,168.6875 Q1799.7719,168.6875 1800.4203,168.8516 Q1801.0688,169.0156 1801.6156,169.375 Z "/>
        <text fill="#000000" font-family="sans-serif" font-size="12" lengthAdjust="spacingAndGlyphs" textLength="100" x="1819.15" y="178.4102">ProductESAdapter</text>
        <line style="stroke: #A80036; stroke-width: 1.5;" x1="1756.5" x2="1949.5" y1="189.5" y2="189.5"/>
        <rect fill="none" height="6" style="stroke: #C82930; stroke-width: 1.0;" width="6" x="1763.5" y="198.918"/>
        <text fill="#000000" font-family="sans-serif" font-size="11" lengthAdjust="spacingAndGlyphs" textLength="134" x="1775.5" y="204.9189">driver : IElasticSearchDriver</text>
        <line style="stroke: #A80036; stroke-width: 1.5;" x1="1756.5" x2="1949.5" y1="211.3359" y2="211.3359"/>
        <ellipse cx="1766.5" cy="223.7539" fill="#84BE84" rx="3" ry="3" style="stroke: #038048; stroke-width: 1.0;"/>
        <text fill="#000000" font-family="sans-serif" font-size="11" lengthAdjust="spacingAndGlyphs" textLength="99" x="1775.5" y="226.7549">find(id : type) : array</text>
        <ellipse cx="1766.5" cy="237.5898" fill="#84BE84" rx="3" ry="3" style="stroke: #038048; stroke-width: 1.0;"/>
        <text fill="#000000" font-family="sans-serif" font-size="11" lengthAdjust="spacingAndGlyphs" textLength="169" x="1775.5" y="240.5908">__construct(driver : IMySQLDriver)</text>
        <!--class IProductDatabaseAdapter-->
        <rect fill="#FEFECE" filter="url(#f1n4zb2qe6jzeu)" height="61.8359" style="stroke: #A80036; stroke-width: 1.5;" width="175" x="1880.5" y="15"/>
        <ellipse cx="1895.5" cy="31" fill="#B4A7E5" rx="11" ry="11" style="stroke: #A80036; stroke-width: 1.0;"/>
        <path d="M1896.4531,27.6406 L1896.4531,34.2969 L1898.1719,34.2969 Q1898.7813,34.2969 1899.0469,34.5313 Q1899.3125,34.7656 1899.3125,35.1563 Q1899.3125,35.5313 1899.0469,35.7656 Q1898.7813,36 1898.1719,36 L1893.0313,36 Q1892.4219,36 1892.1563,35.7656 Q1891.8906,35.5313 1891.8906,35.1406 Q1891.8906,34.7656 1892.1563,34.5313 Q1892.4219,34.2969 1893.0313,34.2969 L1894.75,34.2969 L1894.75,27.6406 L1893.0313,27.6406 Q1892.4219,27.6406 1892.1563,27.4063 Q1891.8906,27.1719 1891.8906,26.7813 Q1891.8906,26.4063 1892.1563,26.1719 Q1892.4219,25.9375 1893.0313,25.9375 L1898.1719,25.9375 Q1898.7813,25.9375 1899.0469,26.1719 Q1899.3125,26.4063 1899.3125,26.7813 Q1899.3125,27.1719 1899.0469,27.4063 Q1898.7813,27.6406 1898.1719,27.6406 L1896.4531,27.6406 Z "/>
        <text fill="#000000" font-family="sans-serif" font-size="12" font-style="italic" lengthAdjust="spacingAndGlyphs" textLength="143" x="1909.5" y="35.9102">IProductDatabaseAdapter</text>
        <line style="stroke: #A80036; stroke-width: 1.5;" x1="1881.5" x2="2054.5" y1="47" y2="47"/>
        <line style="stroke: #A80036; stroke-width: 1.5;" x1="1881.5" x2="2054.5" y1="55" y2="55"/>
        <ellipse cx="1891.5" cy="67.418" fill="#84BE84" rx="3" ry="3" style="stroke: #038048; stroke-width: 1.0;"/>
        <text fill="#000000" font-family="sans-serif" font-size="11" lengthAdjust="spacingAndGlyphs" textLength="105" x="1900.5" y="70.4189">find(id : string) : array</text>
        <!--class ProductCacheFS-->
        <rect fill="#FEFECE" filter="url(#f1n4zb2qe6jzeu)" height="117.1797" style="stroke: #A80036; stroke-width: 1.5;" width="175" x="2215.5" y="144"/>
        <ellipse cx="2253" cy="160" fill="#ADD1B2" rx="11" ry="11" style="stroke: #A80036; stroke-width: 1.0;"/>
        <path d="M2255.7656,155.875 Q2255.9219,155.6563 2256.1094,155.5469 Q2256.2969,155.4375 2256.5156,155.4375 Q2256.8906,155.4375 2257.125,155.6953 Q2257.3594,155.9531 2257.3594,156.5625 L2257.3594,158.0156 Q2257.3594,158.625 2257.125,158.8906 Q2256.8906,159.1563 2256.5156,159.1563 Q2256.1719,159.1563 2255.9688,158.9531 Q2255.7656,158.7656 2255.6563,158.25 Q2255.6094,157.8906 2255.4219,157.7031 Q2255.0938,157.3281 2254.4844,157.1094 Q2253.875,156.8906 2253.25,156.8906 Q2252.4844,156.8906 2251.8516,157.2188 Q2251.2188,157.5469 2250.7266,158.2969 Q2250.2344,159.0469 2250.2344,160.0781 L2250.2344,161.1719 Q2250.2344,162.4063 2251.125,163.2266 Q2252.0156,164.0469 2253.6094,164.0469 Q2254.5469,164.0469 2255.2031,163.7969 Q2255.5938,163.6406 2256.0156,163.2031 Q2256.2813,162.9375 2256.4297,162.8594 Q2256.5781,162.7813 2256.7813,162.7813 Q2257.1094,162.7813 2257.3672,163.0391 Q2257.625,163.2969 2257.625,163.6406 Q2257.625,163.9844 2257.2813,164.3906 Q2256.7813,164.9688 2255.9844,165.2969 Q2254.9063,165.75 2253.6094,165.75 Q2252.0938,165.75 2250.8906,165.125 Q2249.9063,164.625 2249.2188,163.5547 Q2248.5313,162.4844 2248.5313,161.2031 L2248.5313,160.0469 Q2248.5313,158.7188 2249.1484,157.5703 Q2249.7656,156.4219 2250.8594,155.8047 Q2251.9531,155.1875 2253.1875,155.1875 Q2253.9219,155.1875 2254.5703,155.3516 Q2255.2188,155.5156 2255.7656,155.875 Z "/>
        <text fill="#000000" font-family="sans-serif" font-size="12" lengthAdjust="spacingAndGlyphs" textLength="93" x="2272" y="164.9102">ProductCacheFS</text>
        <line style="stroke: #A80036; stroke-width: 1.5;" x1="2216.5" x2="2389.5" y1="176" y2="176"/>
        <rect fill="none" height="6" style="stroke: #C82930; stroke-width: 1.0;" width="6" x="2223.5" y="185.418"/>
        <text fill="#000000" font-family="sans-serif" font-size="11" lengthAdjust="spacingAndGlyphs" textLength="83" x="2235.5" y="191.4189">path : string = "./"</text>
        <line style="stroke: #A80036; stroke-width: 1.5;" x1="2216.5" x2="2389.5" y1="197.8359" y2="197.8359"/>
        <ellipse cx="2226.5" cy="210.2539" fill="#84BE84" rx="3" ry="3" style="stroke: #038048; stroke-width: 1.0;"/>
        <text fill="#000000" font-family="sans-serif" font-size="11" lengthAdjust="spacingAndGlyphs" textLength="114" x="2235.5" y="213.2549">find(key : string) : array</text>
        <rect fill="#F24D5C" height="6" style="stroke: #C82930; stroke-width: 1.0;" width="6" x="2223.5" y="221.0898"/>
        <text fill="#000000" font-family="sans-serif" font-size="11" lengthAdjust="spacingAndGlyphs" textLength="149" x="2235.5" y="227.0908">getFileName(key : type) : string</text>
        <ellipse cx="2226.5" cy="237.9258" fill="#84BE84" rx="3" ry="3" style="stroke: #038048; stroke-width: 1.0;"/>
        <text fill="#000000" font-family="sans-serif" font-size="11" lengthAdjust="spacingAndGlyphs" textLength="131" x="2235.5" y="240.9268">set(key : string, val : array)</text>
        <ellipse cx="2226.5" cy="251.7617" fill="#84BE84" rx="3" ry="3" style="stroke: #038048; stroke-width: 1.0;"/>
        <text fill="#000000" font-family="sans-serif" font-size="11" lengthAdjust="spacingAndGlyphs" textLength="123" x="2235.5" y="254.7627">__construct(path : string)</text>
        <!--class IProductCache-->
        <rect fill="#FEFECE" filter="url(#f1n4zb2qe6jzeu)" height="75.6719" style="stroke: #A80036; stroke-width: 1.5;" width="157" x="2224.5" y="8"/>
        <ellipse cx="2258.85" cy="24" fill="#B4A7E5" rx="11" ry="11" style="stroke: #A80036; stroke-width: 1.0;"/>
        <path d="M2259.8031,20.6406 L2259.8031,27.2969 L2261.5219,27.2969 Q2262.1313,27.2969 2262.3969,27.5313 Q2262.6625,27.7656 2262.6625,28.1563 Q2262.6625,28.5313 2262.3969,28.7656 Q2262.1313,29 2261.5219,29 L2256.3813,29 Q2255.7719,29 2255.5063,28.7656 Q2255.2406,28.5313 2255.2406,28.1406 Q2255.2406,27.7656 2255.5063,27.5313 Q2255.7719,27.2969 2256.3813,27.2969 L2258.1,27.2969 L2258.1,20.6406 L2256.3813,20.6406 Q2255.7719,20.6406 2255.5063,20.4063 Q2255.2406,20.1719 2255.2406,19.7813 Q2255.2406,19.4063 2255.5063,19.1719 Q2255.7719,18.9375 2256.3813,18.9375 L2261.5219,18.9375 Q2262.1313,18.9375 2262.3969,19.1719 Q2262.6625,19.4063 2262.6625,19.7813 Q2262.6625,20.1719 2262.3969,20.4063 Q2262.1313,20.6406 2261.5219,20.6406 L2259.8031,20.6406 Z "/>
        <text fill="#000000" font-family="sans-serif" font-size="12" font-style="italic" lengthAdjust="spacingAndGlyphs" textLength="82" x="2277.15" y="28.9102">IProductCache</text>
        <line style="stroke: #A80036; stroke-width: 1.5;" x1="2225.5" x2="2380.5" y1="40" y2="40"/>
        <line style="stroke: #A80036; stroke-width: 1.5;" x1="2225.5" x2="2380.5" y1="48" y2="48"/>
        <ellipse cx="2235.5" cy="60.418" fill="#84BE84" rx="3" ry="3" style="stroke: #038048; stroke-width: 1.0;"/>
        <text fill="#000000" font-family="sans-serif" font-size="11" lengthAdjust="spacingAndGlyphs" textLength="114" x="2244.5" y="63.4189">find(key : string) : array</text>
        <ellipse cx="2235.5" cy="74.2539" fill="#84BE84" rx="3" ry="3" style="stroke: #038048; stroke-width: 1.0;"/>
        <text fill="#000000" font-family="sans-serif" font-size="11" lengthAdjust="spacingAndGlyphs" textLength="131" x="2244.5" y="77.2549">set(key : string, val : array)</text>
        <!--class ProductDatabaseManager-->
        <rect fill="#FEFECE" filter="url(#f1n4zb2qe6jzeu)" height="89.5078" style="stroke: #A80036; stroke-width: 1.5;" width="176" x="2426" y="157.5"/>
        <ellipse cx="2441" cy="173.5" fill="#ADD1B2" rx="11" ry="11" style="stroke: #A80036; stroke-width: 1.0;"/>
        <path d="M2443.7656,169.375 Q2443.9219,169.1563 2444.1094,169.0469 Q2444.2969,168.9375 2444.5156,168.9375 Q2444.8906,168.9375 2445.125,169.1953 Q2445.3594,169.4531 2445.3594,170.0625 L2445.3594,171.5156 Q2445.3594,172.125 2445.125,172.3906 Q2444.8906,172.6563 2444.5156,172.6563 Q2444.1719,172.6563 2443.9688,172.4531 Q2443.7656,172.2656 2443.6563,171.75 Q2443.6094,171.3906 2443.4219,171.2031 Q2443.0938,170.8281 2442.4844,170.6094 Q2441.875,170.3906 2441.25,170.3906 Q2440.4844,170.3906 2439.8516,170.7188 Q2439.2188,171.0469 2438.7266,171.7969 Q2438.2344,172.5469 2438.2344,173.5781 L2438.2344,174.6719 Q2438.2344,175.9063 2439.125,176.7266 Q2440.0156,177.5469 2441.6094,177.5469 Q2442.5469,177.5469 2443.2031,177.2969 Q2443.5938,177.1406 2444.0156,176.7031 Q2444.2813,176.4375 2444.4297,176.3594 Q2444.5781,176.2813 2444.7813,176.2813 Q2445.1094,176.2813 2445.3672,176.5391 Q2445.625,176.7969 2445.625,177.1406 Q2445.625,177.4844 2445.2813,177.8906 Q2444.7813,178.4688 2443.9844,178.7969 Q2442.9063,179.25 2441.6094,179.25 Q2440.0938,179.25 2438.8906,178.625 Q2437.9063,178.125 2437.2188,177.0547 Q2436.5313,175.9844 2436.5313,174.7031 L2436.5313,173.5469 Q2436.5313,172.2188 2437.1484,171.0703 Q2437.7656,169.9219 2438.8594,169.3047 Q2439.9531,168.6875 2441.1875,168.6875 Q2441.9219,168.6875 2442.5703,168.8516 Q2443.2188,169.0156 2443.7656,169.375 Z "/>
        <text fill="#000000" font-family="sans-serif" font-size="12" lengthAdjust="spacingAndGlyphs" textLength="144" x="2455" y="178.4102">ProductDatabaseManager</text>
        <line style="stroke: #A80036; stroke-width: 1.5;" x1="2427" x2="2601" y1="189.5" y2="189.5"/>
        <rect fill="none" height="6" style="stroke: #C82930; stroke-width: 1.0;" width="6" x="2434" y="198.918"/>
        <text fill="#000000" font-family="sans-serif" font-size="11" lengthAdjust="spacingAndGlyphs" textLength="66" x="2446" y="204.9189">driver : object</text>
        <line style="stroke: #A80036; stroke-width: 1.5;" x1="2427" x2="2601" y1="211.3359" y2="211.3359"/>
        <ellipse cx="2437" cy="223.7539" fill="#84BE84" rx="3" ry="3" style="stroke: #038048; stroke-width: 1.0;"/>
        <text fill="#000000" font-family="sans-serif" font-size="11" lengthAdjust="spacingAndGlyphs" textLength="105" x="2446" y="226.7549">find(id : string) : array</text>
        <ellipse cx="2437" cy="237.5898" fill="#84BE84" rx="3" ry="3" style="stroke: #038048; stroke-width: 1.0;"/>
        <text fill="#000000" font-family="sans-serif" font-size="11" lengthAdjust="spacingAndGlyphs" textLength="132" x="2446" y="240.5908">__construct(driver : object)</text>
        <!--class IProductDatabaseManager-->
        <rect fill="#FEFECE" filter="url(#f1n4zb2qe6jzeu)" height="61.8359" style="stroke: #A80036; stroke-width: 1.5;" width="180" x="2424" y="15"/>
        <ellipse cx="2439" cy="31" fill="#B4A7E5" rx="11" ry="11" style="stroke: #A80036; stroke-width: 1.0;"/>
        <path d="M2439.9531,27.6406 L2439.9531,34.2969 L2441.6719,34.2969 Q2442.2813,34.2969 2442.5469,34.5313 Q2442.8125,34.7656 2442.8125,35.1563 Q2442.8125,35.5313 2442.5469,35.7656 Q2442.2813,36 2441.6719,36 L2436.5313,36 Q2435.9219,36 2435.6563,35.7656 Q2435.3906,35.5313 2435.3906,35.1406 Q2435.3906,34.7656 2435.6563,34.5313 Q2435.9219,34.2969 2436.5313,34.2969 L2438.25,34.2969 L2438.25,27.6406 L2436.5313,27.6406 Q2435.9219,27.6406 2435.6563,27.4063 Q2435.3906,27.1719 2435.3906,26.7813 Q2435.3906,26.4063 2435.6563,26.1719 Q2435.9219,25.9375 2436.5313,25.9375 L2441.6719,25.9375 Q2442.2813,25.9375 2442.5469,26.1719 Q2442.8125,26.4063 2442.8125,26.7813 Q2442.8125,27.1719 2442.5469,27.4063 Q2442.2813,27.6406 2441.6719,27.6406 L2439.9531,27.6406 Z "/>
        <text fill="#000000" font-family="sans-serif" font-size="12" font-style="italic" lengthAdjust="spacingAndGlyphs" textLength="148" x="2453" y="35.9102">IProductDatabaseManager</text>
        <line style="stroke: #A80036; stroke-width: 1.5;" x1="2425" x2="2603" y1="47" y2="47"/>
        <line style="stroke: #A80036; stroke-width: 1.5;" x1="2425" x2="2603" y1="55" y2="55"/>
        <ellipse cx="2435" cy="67.418" fill="#84BE84" rx="3" ry="3" style="stroke: #038048; stroke-width: 1.0;"/>
        <text fill="#000000" font-family="sans-serif" font-size="11" lengthAdjust="spacingAndGlyphs" textLength="105" x="2444" y="70.4189">find(id : string) : array</text>
        <!--class IMySQLDriver-->
        <rect fill="#FEFECE" filter="url(#f1n4zb2qe6jzeu)" height="61.8359" style="stroke: #A80036; stroke-width: 1.5;" width="168" x="106" y="15"/>
        <ellipse cx="148" cy="31" fill="#B4A7E5" rx="11" ry="11" style="stroke: #A80036; stroke-width: 1.0;"/>
        <path d="M148.9531,27.6406 L148.9531,34.2969 L150.6719,34.2969 Q151.2813,34.2969 151.5469,34.5313 Q151.8125,34.7656 151.8125,35.1563 Q151.8125,35.5313 151.5469,35.7656 Q151.2813,36 150.6719,36 L145.5313,36 Q144.9219,36 144.6563,35.7656 Q144.3906,35.5313 144.3906,35.1406 Q144.3906,34.7656 144.6563,34.5313 Q144.9219,34.2969 145.5313,34.2969 L147.25,34.2969 L147.25,27.6406 L145.5313,27.6406 Q144.9219,27.6406 144.6563,27.4063 Q144.3906,27.1719 144.3906,26.7813 Q144.3906,26.4063 144.6563,26.1719 Q144.9219,25.9375 145.5313,25.9375 L150.6719,25.9375 Q151.2813,25.9375 151.5469,26.1719 Q151.8125,26.4063 151.8125,26.7813 Q151.8125,27.1719 151.5469,27.4063 Q151.2813,27.6406 150.6719,27.6406 L148.9531,27.6406 Z "/>
        <text fill="#000000" font-family="sans-serif" font-size="12" font-style="italic" lengthAdjust="spacingAndGlyphs" textLength="76" x="168" y="35.9102">IMySQLDriver</text>
        <line style="stroke: #A80036; stroke-width: 1.5;" x1="107" x2="273" y1="47" y2="47"/>
        <line style="stroke: #A80036; stroke-width: 1.5;" x1="107" x2="273" y1="55" y2="55"/>
        <ellipse cx="117" cy="67.418" fill="#84BE84" rx="3" ry="3" style="stroke: #038048; stroke-width: 1.0;"/>
        <text fill="#000000" font-family="sans-serif" font-size="11" lengthAdjust="spacingAndGlyphs" textLength="142" x="126" y="70.4189">findProduct(id : string) : array</text>
        <!--class ProductHitCacheSerialization-->
        <rect fill="#FEFECE" filter="url(#f1n4zb2qe6jzeu)" height="89.5078" style="stroke: #A80036; stroke-width: 1.5;" width="192" x="1096" y="157.5"/>
        <ellipse cx="1111" cy="173.5" fill="#ADD1B2" rx="11" ry="11" style="stroke: #A80036; stroke-width: 1.0;"/>
        <path d="M1113.7656,169.375 Q1113.9219,169.1563 1114.1094,169.0469 Q1114.2969,168.9375 1114.5156,168.9375 Q1114.8906,168.9375 1115.125,169.1953 Q1115.3594,169.4531 1115.3594,170.0625 L1115.3594,171.5156 Q1115.3594,172.125 1115.125,172.3906 Q1114.8906,172.6563 1114.5156,172.6563 Q1114.1719,172.6563 1113.9688,172.4531 Q1113.7656,172.2656 1113.6563,171.75 Q1113.6094,171.3906 1113.4219,171.2031 Q1113.0938,170.8281 1112.4844,170.6094 Q1111.875,170.3906 1111.25,170.3906 Q1110.4844,170.3906 1109.8516,170.7188 Q1109.2188,171.0469 1108.7266,171.7969 Q1108.2344,172.5469 1108.2344,173.5781 L1108.2344,174.6719 Q1108.2344,175.9063 1109.125,176.7266 Q1110.0156,177.5469 1111.6094,177.5469 Q1112.5469,177.5469 1113.2031,177.2969 Q1113.5938,177.1406 1114.0156,176.7031 Q1114.2813,176.4375 1114.4297,176.3594 Q1114.5781,176.2813 1114.7813,176.2813 Q1115.1094,176.2813 1115.3672,176.5391 Q1115.625,176.7969 1115.625,177.1406 Q1115.625,177.4844 1115.2813,177.8906 Q1114.7813,178.4688 1113.9844,178.7969 Q1112.9063,179.25 1111.6094,179.25 Q1110.0938,179.25 1108.8906,178.625 Q1107.9063,178.125 1107.2188,177.0547 Q1106.5313,175.9844 1106.5313,174.7031 L1106.5313,173.5469 Q1106.5313,172.2188 1107.1484,171.0703 Q1107.7656,169.9219 1108.8594,169.3047 Q1109.9531,168.6875 1111.1875,168.6875 Q1111.9219,168.6875 1112.5703,168.8516 Q1113.2188,169.0156 1113.7656,169.375 Z "/>
        <text fill="#000000" font-family="sans-serif" font-size="12" lengthAdjust="spacingAndGlyphs" textLength="160" x="1125" y="178.4102">ProductHitCacheSerialization</text>
        <line style="stroke: #A80036; stroke-width: 1.5;" x1="1097" x2="1287" y1="189.5" y2="189.5"/>
        <rect fill="none" height="6" style="stroke: #C82930; stroke-width: 1.0;" width="6" x="1104" y="198.918"/>
        <text fill="#000000" font-family="sans-serif" font-size="11" lengthAdjust="spacingAndGlyphs" textLength="145" x="1116" y="204.9189">filename : string = "./counters"</text>
        <line style="stroke: #A80036; stroke-width: 1.5;" x1="1097" x2="1287" y1="211.3359" y2="211.3359"/>
        <ellipse cx="1107" cy="223.7539" fill="#84BE84" rx="3" ry="3" style="stroke: #038048; stroke-width: 1.0;"/>
        <text fill="#000000" font-family="sans-serif" font-size="11" lengthAdjust="spacingAndGlyphs" textLength="72" x="1116" y="226.7549">hit(key : string)</text>
        <ellipse cx="1107" cy="237.5898" fill="#84BE84" rx="3" ry="3" style="stroke: #038048; stroke-width: 1.0;"/>
        <text fill="#000000" font-family="sans-serif" font-size="11" lengthAdjust="spacingAndGlyphs" textLength="142" x="1116" y="240.5908">__construct(filename : string)</text>
        <!--class IElasticSearchDriver-->
        <rect fill="#FEFECE" filter="url(#f1n4zb2qe6jzeu)" height="61.8359" style="stroke: #A80036; stroke-width: 1.5;" width="152" x="309" y="15"/>
        <ellipse cx="327.6" cy="31" fill="#B4A7E5" rx="11" ry="11" style="stroke: #A80036; stroke-width: 1.0;"/>
        <path d="M328.5531,27.6406 L328.5531,34.2969 L330.2719,34.2969 Q330.8813,34.2969 331.1469,34.5313 Q331.4125,34.7656 331.4125,35.1563 Q331.4125,35.5313 331.1469,35.7656 Q330.8813,36 330.2719,36 L325.1313,36 Q324.5219,36 324.2563,35.7656 Q323.9906,35.5313 323.9906,35.1406 Q323.9906,34.7656 324.2563,34.5313 Q324.5219,34.2969 325.1313,34.2969 L326.85,34.2969 L326.85,27.6406 L325.1313,27.6406 Q324.5219,27.6406 324.2563,27.4063 Q323.9906,27.1719 323.9906,26.7813 Q323.9906,26.4063 324.2563,26.1719 Q324.5219,25.9375 325.1313,25.9375 L330.2719,25.9375 Q330.8813,25.9375 331.1469,26.1719 Q331.4125,26.4063 331.4125,26.7813 Q331.4125,27.1719 331.1469,27.4063 Q330.8813,27.6406 330.2719,27.6406 L328.5531,27.6406 Z "/>
        <text fill="#000000" font-family="sans-serif" font-size="12" font-style="italic" lengthAdjust="spacingAndGlyphs" textLength="112" x="342.4" y="35.9102">IElasticSearchDriver</text>
        <line style="stroke: #A80036; stroke-width: 1.5;" x1="310" x2="460" y1="47" y2="47"/>
        <line style="stroke: #A80036; stroke-width: 1.5;" x1="310" x2="460" y1="55" y2="55"/>
        <ellipse cx="320" cy="67.418" fill="#84BE84" rx="3" ry="3" style="stroke: #038048; stroke-width: 1.0;"/>
        <text fill="#000000" font-family="sans-serif" font-size="11" lengthAdjust="spacingAndGlyphs" textLength="126" x="329" y="70.4189">findById(id : string) : array</text>
        <!--class ProductMySqlAdapter-->
        <rect fill="#FEFECE" filter="url(#f1n4zb2qe6jzeu)" height="89.5078" style="stroke: #A80036; stroke-width: 1.5;" width="195" x="1985.5" y="157.5"/>
        <ellipse cx="2021.65" cy="173.5" fill="#ADD1B2" rx="11" ry="11" style="stroke: #A80036; stroke-width: 1.0;"/>
        <path d="M2024.4156,169.375 Q2024.5719,169.1563 2024.7594,169.0469 Q2024.9469,168.9375 2025.1656,168.9375 Q2025.5406,168.9375 2025.775,169.1953 Q2026.0094,169.4531 2026.0094,170.0625 L2026.0094,171.5156 Q2026.0094,172.125 2025.775,172.3906 Q2025.5406,172.6563 2025.1656,172.6563 Q2024.8219,172.6563 2024.6188,172.4531 Q2024.4156,172.2656 2024.3063,171.75 Q2024.2594,171.3906 2024.0719,171.2031 Q2023.7438,170.8281 2023.1344,170.6094 Q2022.525,170.3906 2021.9,170.3906 Q2021.1344,170.3906 2020.5016,170.7188 Q2019.8688,171.0469 2019.3766,171.7969 Q2018.8844,172.5469 2018.8844,173.5781 L2018.8844,174.6719 Q2018.8844,175.9063 2019.775,176.7266 Q2020.6656,177.5469 2022.2594,177.5469 Q2023.1969,177.5469 2023.8531,177.2969 Q2024.2438,177.1406 2024.6656,176.7031 Q2024.9313,176.4375 2025.0797,176.3594 Q2025.2281,176.2813 2025.4313,176.2813 Q2025.7594,176.2813 2026.0172,176.5391 Q2026.275,176.7969 2026.275,177.1406 Q2026.275,177.4844 2025.9313,177.8906 Q2025.4313,178.4688 2024.6344,178.7969 Q2023.5563,179.25 2022.2594,179.25 Q2020.7438,179.25 2019.5406,178.625 Q2018.5563,178.125 2017.8688,177.0547 Q2017.1813,175.9844 2017.1813,174.7031 L2017.1813,173.5469 Q2017.1813,172.2188 2017.7984,171.0703 Q2018.4156,169.9219 2019.5094,169.3047 Q2020.6031,168.6875 2021.8375,168.6875 Q2022.5719,168.6875 2023.2203,168.8516 Q2023.8688,169.0156 2024.4156,169.375 Z "/>
        <text fill="#000000" font-family="sans-serif" font-size="12" lengthAdjust="spacingAndGlyphs" textLength="116" x="2040.35" y="178.4102">ProductMySqlAdapter</text>
        <line style="stroke: #A80036; stroke-width: 1.5;" x1="1986.5" x2="2179.5" y1="189.5" y2="189.5"/>
        <rect fill="none" height="6" style="stroke: #C82930; stroke-width: 1.0;" width="6" x="1993.5" y="198.918"/>
        <text fill="#000000" font-family="sans-serif" font-size="11" lengthAdjust="spacingAndGlyphs" textLength="103" x="2005.5" y="204.9189">driver : IMySQLDriver</text>
        <line style="stroke: #A80036; stroke-width: 1.5;" x1="1986.5" x2="2179.5" y1="211.3359" y2="211.3359"/>
        <ellipse cx="1996.5" cy="223.7539" fill="#84BE84" rx="3" ry="3" style="stroke: #038048; stroke-width: 1.0;"/>
        <text fill="#000000" font-family="sans-serif" font-size="11" lengthAdjust="spacingAndGlyphs" textLength="99" x="2005.5" y="226.7549">find(id : type) : array</text>
        <ellipse cx="1996.5" cy="237.5898" fill="#84BE84" rx="3" ry="3" style="stroke: #038048; stroke-width: 1.0;"/>
        <text fill="#000000" font-family="sans-serif" font-size="11" lengthAdjust="spacingAndGlyphs" textLength="169" x="2005.5" y="240.5908">__construct(driver : IMySQLDriver)</text>
        <!--class ProductController-->
        <rect fill="#FEFECE" filter="url(#f1n4zb2qe6jzeu)" height="103.3438" style="stroke: #A80036; stroke-width: 1.5;" width="368" x="6" y="151"/>
        <ellipse cx="137.75" cy="167" fill="#ADD1B2" rx="11" ry="11" style="stroke: #A80036; stroke-width: 1.0;"/>
        <path d="M140.5156,162.875 Q140.6719,162.6563 140.8594,162.5469 Q141.0469,162.4375 141.2656,162.4375 Q141.6406,162.4375 141.875,162.6953 Q142.1094,162.9531 142.1094,163.5625 L142.1094,165.0156 Q142.1094,165.625 141.875,165.8906 Q141.6406,166.1563 141.2656,166.1563 Q140.9219,166.1563 140.7188,165.9531 Q140.5156,165.7656 140.4063,165.25 Q140.3594,164.8906 140.1719,164.7031 Q139.8438,164.3281 139.2344,164.1094 Q138.625,163.8906 138,163.8906 Q137.2344,163.8906 136.6016,164.2188 Q135.9688,164.5469 135.4766,165.2969 Q134.9844,166.0469 134.9844,167.0781 L134.9844,168.1719 Q134.9844,169.4063 135.875,170.2266 Q136.7656,171.0469 138.3594,171.0469 Q139.2969,171.0469 139.9531,170.7969 Q140.3438,170.6406 140.7656,170.2031 Q141.0313,169.9375 141.1797,169.8594 Q141.3281,169.7813 141.5313,169.7813 Q141.8594,169.7813 142.1172,170.0391 Q142.375,170.2969 142.375,170.6406 Q142.375,170.9844 142.0313,171.3906 Q141.5313,171.9688 140.7344,172.2969 Q139.6563,172.75 138.3594,172.75 Q136.8438,172.75 135.6406,172.125 Q134.6563,171.625 133.9688,170.5547 Q133.2813,169.4844 133.2813,168.2031 L133.2813,167.0469 Q133.2813,165.7188 133.8984,164.5703 Q134.5156,163.4219 135.6094,162.8047 Q136.7031,162.1875 137.9375,162.1875 Q138.6719,162.1875 139.3203,162.3516 Q139.9688,162.5156 140.5156,162.875 Z "/>
        <text fill="#000000" font-family="sans-serif" font-size="12" lengthAdjust="spacingAndGlyphs" textLength="96" x="158.25" y="171.9102">ProductController</text>
        <line style="stroke: #A80036; stroke-width: 1.5;" x1="7" x2="373" y1="183" y2="183"/>
        <rect fill="none" height="6" style="stroke: #C82930; stroke-width: 1.0;" width="6" x="14" y="192.418"/>
        <text fill="#000000" font-family="sans-serif" font-size="11" lengthAdjust="spacingAndGlyphs" textLength="123" x="26" y="198.4189">productDao : IProductDao</text>
        <rect fill="none" height="6" style="stroke: #C82930; stroke-width: 1.0;" width="6" x="14" y="206.2539"/>
        <text fill="#000000" font-family="sans-serif" font-size="11" lengthAdjust="spacingAndGlyphs" textLength="147" x="26" y="212.2549">productHitDao : IProductHitDao</text>
        <line style="stroke: #A80036; stroke-width: 1.5;" x1="7" x2="373" y1="218.6719" y2="218.6719"/>
        <ellipse cx="17" cy="231.0898" fill="#84BE84" rx="3" ry="3" style="stroke: #038048; stroke-width: 1.0;"/>
        <text fill="#000000" font-family="sans-serif" font-size="11" lengthAdjust="spacingAndGlyphs" textLength="113" x="26" y="234.0908">detail(id : string) : string</text>
        <ellipse cx="17" cy="244.9258" fill="#84BE84" rx="3" ry="3" style="stroke: #038048; stroke-width: 1.0;"/>
        <text fill="#000000" font-family="sans-serif" font-size="11" lengthAdjust="spacingAndGlyphs" textLength="342" x="26" y="247.9268">__construct(productDao : IProductDao, productHitDao : IProductHitDao)</text>
        <path d="M554,97.261 C554,116.643 554,138.619 554,157.378 " fill="none" style="stroke: #A80036; stroke-width: 1.0; stroke-dasharray: 7.0,7.0;"/>
        <polygon fill="none" points="547,97.156,554,77.156,561,97.156,547,97.156" style="stroke: #A80036; stroke-width: 1.0;"/>
        <path d="M925.527,89.64 C898.115,110.71 865.07,136.111 837.401,157.378 " fill="none" style="stroke: #A80036; stroke-width: 1.0; stroke-dasharray: 7.0,7.0;"/>
        <polygon fill="none" points="921.645,83.795,941.768,77.156,930.177,94.894,921.645,83.795" style="stroke: #A80036; stroke-width: 1.0;"/>
        <path d="M1522,97.438 C1522,114.53 1522,133.621 1522,150.739 " fill="none" style="stroke: #A80036; stroke-width: 1.0; stroke-dasharray: 7.0,7.0;"/>
        <polygon fill="none" points="1515,97.156,1522,77.156,1529,97.156,1515,97.156" style="stroke: #A80036; stroke-width: 1.0;"/>
        <path d="M981,97.261 C981,116.643 981,138.619 981,157.378 " fill="none" style="stroke: #A80036; stroke-width: 1.0; stroke-dasharray: 7.0,7.0;"/>
        <polygon fill="none" points="974,97.156,981,77.156,988,97.156,974,97.156" style="stroke: #A80036; stroke-width: 1.0;"/>
        <path d="M1933.57,93.258 C1918.45,113.572 1900.78,137.315 1885.84,157.378 " fill="none" style="stroke: #A80036; stroke-width: 1.0; stroke-dasharray: 7.0,7.0;"/>
        <polygon fill="none" points="1928,89.02,1945.55,77.156,1939.23,97.379,1928,89.02" style="stroke: #A80036; stroke-width: 1.0;"/>
        <path d="M2303,104.165 C2303,117.158 2303,130.966 2303,143.974 " fill="none" style="stroke: #A80036; stroke-width: 1.0; stroke-dasharray: 7.0,7.0;"/>
        <polygon fill="none" points="2296,104.007,2303,84.007,2310,104.007,2296,104.007" style="stroke: #A80036; stroke-width: 1.0;"/>
        <path d="M2514,97.261 C2514,116.643 2514,138.619 2514,157.378 " fill="none" style="stroke: #A80036; stroke-width: 1.0; stroke-dasharray: 7.0,7.0;"/>
        <polygon fill="none" points="2507,97.156,2514,77.156,2521,97.156,2507,97.156" style="stroke: #A80036; stroke-width: 1.0;"/>
        <path d="M1038.42,89.045 C1067.35,110.23 1102.42,135.91 1131.74,157.378 " fill="none" style="stroke: #A80036; stroke-width: 1.0; stroke-dasharray: 7.0,7.0;"/>
        <polygon fill="none" points="1034.18,94.619,1022.18,77.156,1042.46,83.324,1034.18,94.619" style="stroke: #A80036; stroke-width: 1.0;"/>
        <path d="M2002.43,93.258 C2017.55,113.572 2035.22,137.315 2050.16,157.378 " fill="none" style="stroke: #A80036; stroke-width: 1.0; stroke-dasharray: 7.0,7.0;"/>
        <polygon fill="none" points="1996.77,97.379,1990.45,77.156,2008,89.02,1996.77,97.379" style="stroke: #A80036; stroke-width: 1.0;"/>
        <!--
@startuml
class ProducHitDao {
    -driver : IProductHitCache
    +hit(id : type) : type
    +__construct(driver : IProductHitCache)
}
class ProducHitDao implements IProductHitDao
class ProductHitCacheCSV {
    -filename : string = "./counters"
    +hit(key : string)
    +__construct(filename : string)
}
class ProductHitCacheCSV implements IProductHitCache
class ProductDao {
    -cache : IProductCache
    -dbManager : IProductDatabaseManager
    +find(id : string) : array
    +__construct(dbManager : IProductDatabaseManager, cache : IProductCache)
}
class ProductDao implements IProductDao
class ProductHitCacheClever {
    -path : string = "./"
    +hit(key : string)
    +__construct(path : string)
}
class ProductHitCacheClever implements IProductHitCache
class ProductESAdapter {
    -driver : IElasticSearchDriver
    +find(id : type) : array
    +__construct(driver : IMySQLDriver)
}
class ProductESAdapter implements IProductDatabaseAdapter
class ProductCacheFS {
    -path : string = "./"
    +find(key : string) : array
    -getFileName(key : type) : string
    +set(key : string, val : array)
    +__construct(path : string)
}
class ProductCacheFS implements IProductCache
class ProductDatabaseManager {
    -driver : object
    +find(id : string) : array
    +__construct(driver : object)
}
class ProductDatabaseManager implements IProductDatabaseManager
interface IMySQLDriver {
    +findProduct(id : string) : array
}
class ProductHitCacheSerialization {
    -filename : string = "./counters"
    +hit(key : string)
    +__construct(filename : string)
}
class ProductHitCacheSerialization implements IProductHitCache
interface IProductHitCache {
    +hit(key : string)
}
interface IElasticSearchDriver {
    +findById(id : string) : array
}
interface IProductDao {
    +find(id : string) : array
}
interface IProductDatabaseAdapter {
    +find(id : string) : array
}
class ProductMySqlAdapter {
    -driver : IMySQLDriver
    +find(id : type) : array
    +__construct(driver : IMySQLDriver)
}
class ProductMySqlAdapter implements IProductDatabaseAdapter
interface IProductDatabaseManager {
    +find(id : string) : array
}
interface IProductHitDao {
    +hit(id : string)
}
interface IProductCache {
    +find(key : string) : array
    +set(key : string, val : array)
}
class ProductController {
    -productDao : IProductDao
    -productHitDao : IProductHitDao
    +detail(id : string) : string
    +__construct(productDao : IProductDao, productHitDao : IProductHitDao)
}
@enduml

PlantUML version 2017.11(Wed Apr 19 18:18:59 CEST 2017)
(GPL source distribution)
Java Runtime: Java(TM) SE Runtime Environment
JVM: Java HotSpot(TM) 64-Bit Server VM
Java Version: 1.8.0_73-b02
Operating System: Windows 7
OS Version: 6.1
Default Encoding: UTF-8
Language: cs
Country: CZ
-->
    </g>
</svg>
